<svg width="29" height="29" viewBox="0 0 29 29" fill="none" xmlns="http://www.w3.org/2000/svg">
<path opacity="0.4" d="M22.5967 10.201L18.1283 14.6694C18.14 14.7161 18.14 14.751 18.14 14.7977C18.14 16.8044 16.5067 18.4377 14.5 18.4377C14.4533 18.4377 14.4183 18.4377 14.3717 18.426L9.90332 22.8944C11.2567 23.6877 12.8317 24.1311 14.5 24.1311C19.645 24.1311 23.8333 19.9427 23.8333 14.7977C23.8333 13.1294 23.39 11.5544 22.5967 10.201Z" fill="#EB1933"/>
<path opacity="0.4" d="M21.0917 8.20602L17.0667 12.231C16.4134 11.566 15.5034 11.1577 14.5001 11.1577C12.4934 11.1577 10.8601 12.791 10.8601 14.7977C10.8601 15.801 11.2684 16.711 11.9334 17.3644L7.90841 21.3894C6.21675 19.6977 5.16675 17.3644 5.16675 14.7977C5.16675 9.65269 9.35508 5.46436 14.5001 5.46436C17.0667 5.46436 19.4001 6.51436 21.0917 8.20602Z" fill="#EB1933"/>
<path d="M17.0668 12.231L11.9334 17.3644C11.2684 16.711 10.8601 15.801 10.8601 14.7977C10.8601 12.791 12.4934 11.1577 14.5001 11.1577C15.5034 11.1577 16.4134 11.566 17.0668 12.231Z" fill="#EB1933"/>
<path d="M15.375 3.1311V5.5111H15.3633C15.0833 5.4761 14.7917 5.46444 14.5 5.46444C14.2083 5.46444 13.9167 5.4761 13.6367 5.5111H13.625V3.1311C13.625 2.65277 14.0217 2.2561 14.5 2.2561C14.9783 2.2561 15.375 2.65277 15.375 3.1311Z" fill="#EB1933"/>
<path d="M5.16658 14.7977C5.16658 15.0894 5.17825 15.3927 5.21325 15.6727H2.83325C2.35492 15.6727 1.95825 15.2761 1.95825 14.7977C1.95825 14.3194 2.35492 13.9227 2.83325 13.9227H5.21325C5.17825 14.2027 5.16658 14.5061 5.16658 14.7977Z" fill="#EB1933"/>
<path d="M15.375 24.0844V26.4644C15.375 26.9427 14.9783 27.3394 14.5 27.3394C14.0217 27.3394 13.625 26.9427 13.625 26.4644V24.0844H13.6367C13.9167 24.1194 14.2083 24.131 14.5 24.131C14.7917 24.131 15.0833 24.1194 15.3633 24.0844H15.375Z" fill="#EB1933"/>
<path d="M27.0416 14.7977C27.0416 15.2761 26.645 15.6727 26.1666 15.6727H23.7866C23.8216 15.3927 23.8333 15.0894 23.8333 14.7977C23.8333 14.5061 23.8216 14.2027 23.7866 13.9227H26.1666C26.645 13.9227 27.0416 14.3194 27.0416 14.7977Z" fill="#EB1933"/>
<path d="M25.8983 3.39934C25.5483 3.04934 24.9766 3.04934 24.6266 3.39934L3.10161 24.936C2.75161 25.286 2.75161 25.8577 3.10161 26.2077C3.27661 26.371 3.49828 26.4643 3.73161 26.4643C3.96494 26.4643 4.18661 26.371 4.36161 26.196L25.8983 4.65934C26.2599 4.30934 26.2599 3.74934 25.8983 3.39934Z" fill="#EB1933"/>
</svg>
