<svg width="29" height="29" viewBox="0 0 29 29" fill="none" xmlns="http://www.w3.org/2000/svg">
<path d="M23.2967 8.05716L19.715 4.4755C18.6183 3.37883 17.1367 2.7605 15.585 2.7605H9.83333C6.33333 2.7605 4 5.09383 4 8.59383V20.2605C4 23.7605 6.33333 26.0938 9.83333 26.0938H19.1667C22.6667 26.0938 25 23.7605 25 20.2605V12.1755C25 10.6238 24.3817 9.14216 23.2967 8.05716ZM13.9167 21.5105C13.9167 21.7866 13.6928 22.0105 13.4167 22.0105H12.1667C10.2417 22.0105 8.66667 20.4355 8.66667 18.5105V17.8438C8.66667 17.5677 8.89052 17.3438 9.16667 17.3438H13.625C13.7883 17.3438 13.9167 17.4722 13.9167 17.6355V21.5105ZM13.9167 15.8855C13.9167 16.0488 13.7883 16.1772 13.625 16.1772H9.16667C8.89052 16.1772 8.66667 15.9533 8.66667 15.6772V15.0105C8.66667 13.0855 10.2417 11.5105 12.1667 11.5105H13.4167C13.6928 11.5105 13.9167 11.7344 13.9167 12.0105V15.8855ZM20.3333 18.5105C20.3333 20.4355 18.7583 22.0105 16.8333 22.0105H15.5833C15.3072 22.0105 15.0833 21.7866 15.0833 21.5105V17.6355C15.0833 17.4722 15.2117 17.3438 15.375 17.3438H19.8333C20.1095 17.3438 20.3333 17.5677 20.3333 17.8438V18.5105ZM20.3333 15.6772C20.3333 15.9533 20.1095 16.1772 19.8333 16.1772H15.375C15.2117 16.1772 15.0833 16.0488 15.0833 15.8855V12.0105C15.0833 11.7344 15.3072 11.5105 15.5833 11.5105H16.8333C18.7583 11.5105 20.3333 13.0855 20.3333 15.0105V15.6772Z" fill="#EB1933"/>
</svg>
